<svg width="38" height="38" viewBox="0 0 38 38" fill="none" xmlns="http://www.w3.org/2000/svg">
<path fill-rule="evenodd" clip-rule="evenodd" d="M38 35.2862C33.821 30.4766 26.6736 27.3067 18.5583 27.3067C10.9891 27.3067 4.26192 30.0643 0 34.3379C3.42431 28.4645 10.5314 24.4285 18.7437 24.4285C27.3908 24.4285 34.8127 28.9033 38 35.2862Z" fill="#D9D9D9"/>
<path fill-rule="evenodd" clip-rule="evenodd" d="M38 2.71363C33.821 7.52318 26.6736 10.6932 18.5583 10.6932C10.9891 10.6932 4.26192 7.93548 0 3.66188C3.42431 9.53532 10.5314 13.5714 18.7437 13.5714C27.3908 13.5714 34.8127 9.09652 38 2.71363Z" fill="#D9D9D9"/>
<path fill-rule="evenodd" clip-rule="evenodd" d="M2.99994 1.133e-05C7.80949 4.17896 10.9795 11.3264 10.9795 19.4417C10.9795 27.0109 8.22179 33.7381 3.94819 38C9.82163 34.5757 13.8577 27.4686 13.8577 19.2563C13.8577 10.6092 9.38284 3.18734 2.99994 1.133e-05Z" fill="#D9D9D9"/>
<path fill-rule="evenodd" clip-rule="evenodd" d="M34.8577 1.133e-05C30.0482 4.17896 26.8782 11.3264 26.8782 19.4417C26.8782 27.0109 29.6359 33.7381 33.9095 38C28.036 34.5757 24 27.4686 24 19.2563C24 10.6092 28.4748 3.18734 34.8577 1.133e-05Z" fill="#D9D9D9"/>
</svg>
